<svg xmlns="http://www.w3.org/2000/svg" viewBox="0 0 160 160" width="160" height="160" role="img" aria-label="Space invader avatar">
  <rect width="160" height="160" fill="#0b1220"/>
  <g fill="#7CFF6B">
    <rect x="50" y="30" width="10" height="10"/>
    <rect x="60" y="30" width="10" height="10"/>
    <rect x="70" y="30" width="10" height="10"/>
    <rect x="80" y="30" width="10" height="10"/>
    <rect x="90" y="30" width="10" height="10"/>
    <rect x="100" y="30" width="10" height="10"/>

    <rect x="40" y="40" width="10" height="10"/>
    <rect x="50" y="40" width="10" height="10"/>
    <rect x="60" y="40" width="10" height="10"/>
    <rect x="70" y="40" width="10" height="10"/>
    <rect x="80" y="40" width="10" height="10"/>
    <rect x="90" y="40" width="10" height="10"/>
    <rect x="100" y="40" width="10" height="10"/>
    <rect x="110" y="40" width="10" height="10"/>

    <rect x="30" y="50" width="10" height="10"/>
    <rect x="40" y="50" width="10" height="10"/>
    <rect x="60" y="50" width="10" height="10"/>
    <rect x="70" y="50" width="10" height="10"/>
    <rect x="80" y="50" width="10" height="10"/>
    <rect x="90" y="50" width="10" height="10"/>
    <rect x="110" y="50" width="10" height="10"/>
    <rect x="120" y="50" width="10" height="10"/>

    <rect x="30" y="60" width="10" height="10"/>
    <rect x="40" y="60" width="10" height="10"/>
    <rect x="50" y="60" width="10" height="10"/>
    <rect x="60" y="60" width="10" height="10"/>
    <rect x="70" y="60" width="10" height="10"/>
    <rect x="80" y="60" width="10" height="10"/>
    <rect x="90" y="60" width="10" height="10"/>
    <rect x="100" y="60" width="10" height="10"/>
    <rect x="110" y="60" width="10" height="10"/>
    <rect x="120" y="60" width="10" height="10"/>

    <rect x="30" y="70" width="10" height="10"/>
    <rect x="50" y="70" width="10" height="10"/>
    <rect x="60" y="70" width="10" height="10"/>
    <rect x="70" y="70" width="10" height="10"/>
    <rect x="80" y="70" width="10" height="10"/>
    <rect x="90" y="70" width="10" height="10"/>
    <rect x="100" y="70" width="10" height="10"/>
    <rect x="120" y="70" width="10" height="10"/>

    <rect x="30" y="80" width="10" height="10"/>
    <rect x="40" y="80" width="10" height="10"/>
    <rect x="50" y="80" width="10" height="10"/>
    <rect x="60" y="80" width="10" height="10"/>
    <rect x="70" y="80" width="10" height="10"/>
    <rect x="80" y="80" width="10" height="10"/>
    <rect x="90" y="80" width="10" height="10"/>
    <rect x="100" y="80" width="10" height="10"/>
    <rect x="110" y="80" width="10" height="10"/>
    <rect x="120" y="80" width="10" height="10"/>

    <rect x="40" y="90" width="10" height="10"/>
    <rect x="50" y="90" width="10" height="10"/>
    <rect x="70" y="90" width="10" height="10"/>
    <rect x="80" y="90" width="10" height="10"/>
    <rect x="90" y="90" width="10" height="10"/>
    <rect x="110" y="90" width="10" height="10"/>

    <rect x="30" y="100" width="10" height="10"/>
    <rect x="50" y="100" width="10" height="10"/>
    <rect x="100" y="100" width="10" height="10"/>
    <rect x="120" y="100" width="10" height="10"/>
  </g>
</svg>
